<?xml version="1.0" standalone="no"?>
<!DOCTYPE svg PUBLIC "-//W3C//DTD SVG 20010904//EN"
 "http://www.w3.org/TR/2001/REC-SVG-20010904/DTD/svg10.dtd">
<svg version="1.0" xmlns="http://www.w3.org/2000/svg"
 width="1280.000000pt" height="720.000000pt" viewBox="0 0 1280.000000 720.000000"
 preserveAspectRatio="xMidYMid meet">

<g transform="translate(0.000000,720.000000) scale(0.100000,-0.100000)"
fill="#000000" stroke="none">
<path d="M1768 7187 c-7 -7 -38 -23 -68 -36 -30 -13 -62 -29 -70 -36 -8 -7
-33 -17 -55 -23 -59 -16 -116 -38 -124 -48 -7 -11 -40 -32 -61 -40 -73 -28
-215 -92 -250 -113 -8 -5 -46 -19 -85 -32 -38 -12 -81 -29 -95 -36 -14 -7 -40
-13 -58 -13 -19 0 -48 -6 -65 -14 -70 -31 -197 -48 -197 -26 0 13 -97 13 -215
0 -84 -9 -94 -8 -160 16 -67 25 -130 39 -222 51 l-43 5 0 -2604 0 -2604 88 8
c258 24 311 31 305 41 -4 6 -1 7 6 3 7 -5 27 -5 46 -2 27 5 32 10 28 26 -3 13
0 20 8 20 8 0 26 6 41 14 37 20 151 42 290 57 96 10 134 10 215 -1 149 -20
221 -43 254 -82 35 -41 35 -44 2 -65 -44 -29 -183 -43 -498 -52 -248 -6 -307
-11 -338 -25 -21 -9 -41 -24 -44 -34 -4 -9 -11 -20 -17 -24 -17 -11 -17 -55
-1 -115 8 -32 20 -119 25 -193 19 -242 38 -326 92 -403 26 -37 58 -124 58
-159 0 -15 4 -29 9 -32 5 -3 12 -18 15 -32 4 -15 34 -67 67 -117 51 -76 75
-118 84 -147 15 -51 24 -98 29 -155 4 -38 9 -91 12 -117 l6 -48 334 0 334 0 0
53 c1 102 2 107 22 107 10 0 46 -18 79 -40 33 -22 64 -40 69 -40 4 0 11 -18
15 -40 l7 -40 3984 0 c3954 0 3984 0 3984 20 0 59 63 173 102 186 9 3 31 18
49 35 32 30 49 37 49 18 0 -6 7 -17 15 -25 17 -17 21 -99 5 -109 -5 -3 -10
-18 -10 -32 0 -14 -9 -41 -21 -59 l-21 -34 109 0 108 0 88 92 c49 51 100 113
114 138 14 25 39 64 55 87 19 28 33 65 39 105 14 86 29 136 55 183 28 53 42
118 49 240 15 251 5 332 -53 423 -37 59 -48 71 -113 123 -36 30 -45 44 -47 73
-3 44 16 58 112 81 72 18 229 16 356 -5 30 -5 91 -12 135 -15 44 -4 109 -13
145 -21 133 -29 299 -54 450 -69 144 -13 395 -46 500 -65 25 -5 119 -20 210
-33 91 -14 199 -33 240 -42 195 -43 351 -73 408 -80 l62 -7 0 2996 0 2996 -57
0 c-39 0 -62 -5 -75 -17 -24 -21 -73 -21 -96 0 -17 16 -82 17 -823 14 l-804
-3 -70 -26 c-57 -22 -222 -101 -285 -137 -88 -51 -170 -58 -290 -27 -177 46
-180 47 -160 53 8 2 24 8 35 13 53 22 86 30 149 36 70 7 136 35 136 58 0 34
-21 36 -333 36 l-309 0 -18 -23 c-10 -13 -37 -32 -59 -42 -37 -16 -44 -17 -68
-4 -15 8 -34 26 -42 41 l-16 28 -3917 0 c-3183 0 -3919 -2 -3930 -13z m10591
-36 c31 -11 83 -27 116 -37 63 -18 102 -45 91 -62 -7 -12 -75 -26 -201 -40
-49 -6 -110 -18 -135 -27 -137 -50 -219 -57 -321 -26 -213 64 -213 64 -439 68
-118 1 -222 6 -230 9 -40 16 57 27 310 35 461 13 495 16 580 48 151 58 152 58
229 32z m-691 -267 c28 -4 52 -10 52 -14 0 -26 -302 -110 -470 -130 -210 -25
-544 2 -577 47 -24 32 -15 52 27 63 22 5 57 15 79 20 29 8 60 6 127 -7 108
-21 188 -21 314 0 52 9 109 18 125 20 54 7 269 7 323 1z m-4173 -1624 c22 -5
83 -12 135 -15 125 -6 169 -11 183 -23 7 -5 27 -13 45 -17 17 -3 32 -10 32
-15 0 -4 26 -20 58 -36 50 -24 54 -28 32 -32 -14 -2 -32 -10 -40 -17 -24 -21
-130 -65 -158 -65 -14 0 -48 -13 -76 -28 -28 -16 -63 -32 -78 -36 -16 -3 -28
-13 -28 -21 0 -7 -10 -17 -22 -21 -13 -4 -25 -10 -28 -13 -3 -4 -57 -19 -120
-35 -69 -17 -134 -40 -163 -57 -26 -16 -52 -29 -57 -29 -6 0 -10 -4 -10 -10 0
-5 -7 -10 -15 -10 -22 0 -105 -53 -155 -99 -25 -22 -59 -48 -76 -56 -24 -11
-33 -24 -38 -50 -4 -21 -14 -38 -24 -41 -40 -13 -92 -38 -92 -44 0 -4 -21 -16
-47 -28 -37 -16 -74 -22 -156 -25 -60 -2 -112 -8 -115 -14 -4 -6 -25 -13 -47
-17 -22 -4 -53 -11 -70 -16 -16 -5 -59 -17 -95 -26 -70 -18 -108 -38 -91 -48
12 -8 -28 -75 -45 -76 -6 0 -16 -11 -22 -25 -6 -14 -16 -25 -22 -25 -5 0 -10
-10 -10 -23 0 -13 -11 -34 -24 -46 -19 -18 -26 -38 -32 -87 -3 -35 -10 -67
-15 -70 -5 -3 -9 -17 -9 -31 0 -33 -21 -93 -33 -93 -5 0 -6 -37 -2 -86 5 -56
4 -85 -2 -81 -6 4 -16 -6 -23 -21 l-13 -27 -6 23 -6 24 -27 -21 c-14 -12 -31
-21 -37 -21 -6 0 -11 -7 -11 -15 0 -8 -7 -15 -15 -15 -8 0 -25 -6 -36 -12 -17
-10 -23 -10 -26 0 -3 7 -22 12 -44 12 -39 0 -39 0 -39 40 0 32 -4 40 -18 40
-28 0 -39 60 -28 158 5 45 13 82 18 82 14 0 9 60 -12 146 -10 44 -17 90 -14
101 3 11 -1 25 -10 32 -9 8 -16 18 -16 24 0 5 -19 33 -42 62 -32 39 -62 63
-113 88 -80 39 -140 52 -310 67 -189 16 -241 28 -278 62 -18 16 -42 31 -54 34
-13 4 -23 10 -23 15 0 5 -7 9 -15 9 -10 0 -15 7 -13 17 2 14 -9 21 -47 30 -27
7 -59 17 -70 22 -11 5 -50 12 -86 14 -46 3 -77 12 -105 29 -21 13 -59 30 -84
37 -129 36 -219 67 -255 87 -88 50 -318 109 -617 159 -45 7 -69 39 -41 53 10
5 30 12 46 16 15 3 27 10 27 15 0 10 123 51 165 56 14 1 31 8 40 15 8 7 22 10
31 6 8 -3 45 1 82 8 44 10 160 17 337 20 149 3 416 10 595 16 179 6 403 7 498
4 137 -5 172 -4 172 6 0 10 15 11 63 6 268 -28 568 -37 575 -18 3 9 67 12 225
13 286 0 438 11 472 33 14 9 25 12 25 6 0 -14 106 -13 130 3 17 10 22 9 30 -3
8 -12 11 -12 27 1 22 19 77 39 109 39 13 0 24 5 24 11 0 7 40 9 120 7 66 -2
120 0 120 4 0 9 85 2 135 -12z m1469 -663 c22 -21 20 -36 -6 -58 -56 -50 -186
-61 -640 -57 -218 2 -394 0 -392 -3 2 -4 -13 -3 -34 2 -20 4 -55 4 -77 -1 -22
-5 -47 -8 -55 -7 -8 1 -39 -2 -68 -7 -36 -5 -57 -4 -66 3 -8 7 -18 11 -22 10
-5 -1 -16 -1 -24 0 -30 4 77 38 139 45 35 4 80 14 100 21 56 22 447 53 734 59
87 2 161 7 165 11 4 4 57 5 119 2 83 -3 116 -8 127 -20z m-5744 -76 c63 -5
142 -15 175 -21 33 -7 78 -13 100 -15 22 -1 51 -7 65 -12 14 -6 51 -18 82 -28
32 -10 55 -22 52 -26 -3 -5 -9 -7 -14 -4 -5 3 -11 2 -13 -2 -3 -5 -226 -9
-496 -11 -477 -3 -492 -2 -536 18 -31 14 -45 27 -45 40 0 12 -7 21 -17 21 -10
1 5 5 32 10 28 4 77 12 110 18 33 6 83 11 112 11 28 0 54 4 57 9 6 9 156 6
336 -8z m-660 -67 c0 -16 -16 -19 -25 -4 -8 13 4 32 16 25 5 -4 9 -13 9 -21z
m1263 -41 c-13 -2 -33 -2 -45 0 -13 2 -3 4 22 4 25 0 35 -2 23 -4z m5278 -178
c55 -20 80 -43 76 -71 -6 -49 -65 -82 -206 -115 l-85 -21 -49 23 -48 23 6 51
c11 79 29 113 67 124 43 14 184 5 239 -14z m-5116 -49 c17 -1 44 -11 62 -24
17 -12 33 -18 35 -12 1 5 14 -6 27 -26 14 -20 20 -38 15 -44 -5 -4 -38 -23
-74 -41 -62 -32 -70 -34 -175 -34 -93 0 -116 3 -150 21 -41 21 -51 46 -31 73
17 22 79 58 114 66 17 3 32 10 32 15 0 11 67 19 95 12 11 -2 34 -5 50 -6z
m3727 -12 c99 -23 140 -69 81 -92 -58 -23 -136 -23 -257 -3 -66 11 -126 27
-136 36 -9 8 -22 15 -28 15 -19 0 -14 14 11 30 49 31 219 39 329 14z m-5062
-19 c17 -9 30 -23 30 -31 0 -9 9 -29 21 -45 26 -37 21 -60 -16 -78 -63 -30
-237 -6 -345 47 -74 36 -76 56 -8 77 29 9 69 19 88 22 19 3 51 8 70 13 58 13
129 11 160 -5z m1519 -236 l66 -1 -45 -13 c-25 -6 -76 -20 -115 -29 -38 -10
-72 -22 -76 -27 -3 -5 -43 -13 -90 -17 -46 -5 -98 -16 -114 -24 -17 -9 -48
-17 -70 -19 -38 -3 -149 24 -170 41 -5 5 -23 11 -40 13 -16 3 0 4 37 3 37 -1
62 1 56 5 -6 4 15 10 48 14 32 3 82 13 109 21 72 22 257 44 309 38 16 -2 58
-4 95 -5z m4243 -50 c9 -5 37 -9 62 -9 25 0 48 -4 51 -10 3 -5 21 -10 38 -10
29 -1 105 -14 225 -39 24 -4 48 -15 55 -24 7 -8 34 -17 61 -20 27 -3 51 -9 55
-15 8 -13 115 -36 161 -34 51 2 240 -43 240 -58 0 -8 83 -30 114 -30 14 0 31
-7 39 -15 18 -17 93 -45 125 -45 23 0 32 -19 10 -21 -7 0 10 -7 37 -15 28 -8
60 -12 73 -9 27 7 82 -31 82 -57 0 -10 4 -18 8 -18 5 0 13 -20 19 -45 6 -25 8
-43 5 -41 -9 9 -32 -45 -32 -74 0 -23 -6 -29 -40 -39 -32 -9 -40 -17 -40 -35
0 -23 -33 -46 -65 -46 -8 0 -15 -9 -15 -20 0 -13 -7 -20 -19 -20 -12 0 -20 -9
-24 -29 -3 -16 -13 -35 -20 -43 -13 -13 -12 -16 4 -26 10 -7 19 -22 19 -35 0
-13 14 -42 31 -65 17 -23 26 -42 20 -42 -7 0 -11 -29 -11 -79 0 -44 -4 -82 -9
-86 -5 -3 -13 -20 -16 -38 -4 -17 -18 -54 -31 -80 -13 -27 -24 -55 -24 -63 0
-8 -9 -14 -21 -14 -11 0 -42 -10 -69 -21 -27 -12 -57 -19 -65 -15 -9 3 -14 2
-11 -3 3 -5 -13 -11 -37 -14 -135 -18 -188 -26 -196 -31 -5 -4 -128 -6 -273
-5 -145 0 -303 -1 -353 -2 -123 -4 -152 -4 -372 9 -152 8 -196 14 -209 26 -8
9 -27 16 -40 16 -14 0 -35 5 -46 11 -12 6 -35 13 -52 14 -97 9 -176 58 -176
109 0 13 -4 26 -9 28 -4 2 -11 32 -15 66 -5 40 -4 62 2 58 6 -3 13 2 16 11 4
9 2 19 -3 22 -5 4 -17 38 -26 78 -16 71 -44 128 -45 91 0 -28 -29 -10 -51 34
-12 23 -24 36 -31 32 -7 -5 -8 -3 -3 5 4 8 -1 18 -13 26 -15 11 -20 27 -21 75
-1 54 1 60 19 60 17 0 20 7 20 40 0 22 -4 40 -10 40 -5 0 -14 18 -20 41 -10
38 -9 44 16 80 21 31 33 39 57 39 24 0 27 2 18 14 -13 15 1 32 18 22 5 -4 23
5 39 19 16 14 38 25 48 25 21 1 74 43 74 60 0 5 4 10 9 10 6 0 25 14 43 30 19
18 49 33 71 37 26 4 37 11 37 23 0 10 7 21 16 24 9 4 14 9 11 13 -10 9 12 43
28 43 8 0 23 8 33 18 10 10 29 25 41 34 29 20 19 38 -20 38 -35 0 -41 27 -6
32 46 6 373 -4 389 -13z m-5162 -55 c0 -2 -11 -4 -25 -4 -14 0 -25 4 -25 9 0
4 11 6 25 3 14 -2 25 -6 25 -8z m190 -124 c0 -5 20 -10 45 -10 32 0 51 -6 65
-20 11 -11 27 -20 35 -20 8 0 15 -4 15 -10 0 -5 9 -10 19 -10 11 0 21 -4 23
-10 2 -5 13 -11 26 -13 13 -2 30 -17 41 -37 14 -27 30 -38 74 -53 32 -10 57
-24 57 -30 0 -19 43 -57 66 -57 30 0 48 -24 40 -55 -4 -14 -2 -25 4 -25 14 0
12 -37 -2 -43 -10 -4 -9 -8 2 -17 11 -9 12 -13 3 -17 -9 -3 -13 -28 -13 -74 0
-48 -4 -69 -12 -69 -7 0 -4 -7 7 -16 19 -14 19 -16 3 -28 -10 -7 -18 -18 -18
-25 0 -6 -11 -11 -24 -11 -13 0 -29 -6 -35 -14 -7 -8 -36 -26 -66 -42 -49 -24
-55 -31 -55 -59 0 -39 -35 -115 -43 -94 -4 10 -8 7 -12 -8 -8 -26 -25 -31 -25
-8 0 19 -16 20 -23 1 -6 -16 16 -40 26 -29 4 3 7 1 7 -6 0 -7 4 -10 9 -7 5 4
21 -7 34 -24 14 -16 31 -30 37 -30 16 0 63 -36 122 -93 46 -46 48 -50 39 -80
-6 -18 -12 -44 -15 -59 -6 -36 -48 -92 -57 -76 -5 8 -18 8 -51 -1 -23 -6 -91
-13 -150 -15 -59 -2 -111 -7 -116 -10 -5 -3 -192 -7 -415 -8 -312 -2 -409 0
-419 10 -6 6 -34 12 -60 12 -68 0 -218 35 -218 50 0 6 5 10 10 10 18 0 11 17
-25 65 -30 39 -36 56 -41 113 -3 37 -5 76 -5 86 0 26 -30 76 -46 76 -22 0 -15
18 23 55 33 34 35 37 23 69 -12 32 -13 33 -63 30 -39 -2 -44 -1 -21 5 29 7 28
8 -47 44 -42 20 -80 37 -84 37 -4 0 -27 9 -51 21 -23 11 -58 23 -75 26 -18 3
-40 10 -48 17 -8 6 -33 21 -55 33 -128 68 -144 81 -145 120 0 12 -6 23 -12 26
-10 3 -10 9 0 26 6 11 12 28 12 36 0 9 9 15 25 15 14 0 40 15 65 39 23 21 49
41 58 44 54 17 127 48 142 62 9 8 24 15 33 15 9 0 31 9 50 20 24 14 58 22 105
24 39 2 74 6 79 9 4 3 46 8 93 11 47 3 110 12 140 20 30 7 131 17 224 21 102
4 163 11 155 16 -10 6 -8 9 9 9 12 0 22 -4 22 -10 0 -5 9 -10 21 -10 11 0 18
4 14 9 -3 5 -1 12 4 15 17 11 146 25 239 27 50 1 92 6 92 10 0 5 25 9 55 9 30
0 55 -4 55 -10z m240 -30 c0 -24 -43 -28 -66 -6 -21 22 -17 26 26 26 33 0 40
-3 40 -20z m2240 -68 c0 -10 -45 -32 -65 -32 -8 0 -15 9 -15 20 0 17 7 20 40
20 22 0 40 -4 40 -8z m200 -588 c30 -9 74 -20 98 -25 24 -5 55 -17 68 -28 14
-11 32 -17 40 -14 10 4 17 -2 21 -15 3 -12 14 -24 24 -27 10 -4 18 -11 16 -17
-1 -7 19 -22 46 -35 26 -12 47 -27 47 -32 0 -24 117 -34 315 -27 110 3 277 9
372 12 115 4 176 2 185 -5 7 -6 28 -22 46 -37 17 -14 30 -30 27 -34 -3 -5 3
-11 13 -15 11 -3 33 -21 50 -39 l31 -34 -34 -6 c-19 -4 -47 -13 -62 -21 -15
-8 -35 -15 -45 -15 -9 0 -18 -5 -20 -11 -3 -10 -370 -27 -630 -30 -32 -1 -58
-5 -58 -10 0 -5 -14 -9 -31 -9 -35 0 -139 -28 -153 -41 -6 -5 -19 -9 -29 -9
-11 0 -43 -20 -71 -43 -47 -40 -57 -44 -123 -50 -39 -4 -83 -11 -96 -16 -41
-16 -246 -32 -405 -33 -126 0 -167 4 -240 23 -103 26 -127 42 -109 71 13 20
13 20 -57 73 -10 8 -31 17 -47 20 -15 3 -30 13 -33 21 -3 8 -13 14 -22 14 -21
0 -134 52 -134 62 0 4 -8 8 -18 8 -10 0 -23 5 -29 11 -7 7 -23 7 -53 -1 -23
-6 -49 -9 -57 -6 -8 3 -31 -7 -51 -23 -20 -17 -49 -33 -64 -36 -16 -4 -26 -11
-23 -15 6 -9 -452 -2 -475 8 -8 3 -22 6 -30 7 -35 4 -80 30 -80 47 0 10 -6 18
-14 18 -8 0 -18 10 -22 22 -9 28 43 74 101 89 22 6 63 18 90 27 64 19 123 23
205 11 36 -5 115 -16 175 -24 117 -15 145 -22 145 -36 0 -5 9 -9 20 -9 11 0
20 5 20 10 0 6 26 10 59 10 41 0 60 4 64 14 3 8 19 17 36 21 17 4 33 11 36 16
4 5 15 9 26 9 10 0 19 4 19 8 0 9 134 72 153 72 10 0 42 14 162 71 33 15 77
31 98 34 20 3 37 10 37 15 0 31 364 34 470 4z m206 -1069 c14 -13 13 -15 -10
-15 -18 0 -24 4 -20 15 4 8 8 15 11 15 2 0 11 -7 19 -15z m-286 -56 c0 -39 0
-39 -40 -39 -22 0 -40 -4 -40 -10 0 -5 -9 -10 -20 -10 -16 0 -20 -7 -20 -30 0
-20 5 -30 15 -30 11 0 15 -11 15 -40 0 -29 4 -40 15 -40 8 0 15 -9 15 -20 0
-11 -7 -20 -15 -20 -8 0 -15 -9 -15 -20 0 -15 7 -20 25 -20 20 0 25 -5 25 -25
0 -14 -7 -28 -15 -31 -21 -8 -19 -24 3 -25 11 0 7 -4 -10 -11 -35 -12 -36 -28
-3 -28 14 0 25 4 25 10 0 12 58 1 85 -16 23 -14 155 -15 155 -1 0 4 8 6 18 4
9 -3 45 -11 80 -17 34 -7 62 -17 62 -22 0 -6 11 -19 25 -30 14 -11 23 -24 19
-29 -3 -5 3 -12 13 -16 10 -4 20 -10 23 -15 3 -4 30 -9 60 -12 60 -4 116 -21
141 -42 8 -8 19 -14 24 -14 10 0 65 -60 65 -72 0 -4 8 -8 18 -9 43 -3 -66 -21
-198 -34 -80 -8 -192 -19 -249 -25 -153 -15 -869 -15 -954 0 -53 10 -65 15
-57 25 6 7 9 19 8 26 -2 9 6 13 22 12 19 -2 33 8 55 37 25 33 36 39 68 40 26
0 37 4 37 15 0 9 7 27 16 40 15 23 15 25 0 25 -34 0 -14 28 37 50 28 12 46 24
40 27 -25 9 -12 23 27 29 22 4 43 11 46 15 3 5 16 9 29 9 13 0 30 7 39 15 8 8
31 15 53 14 l38 -1 -45 -15 c-38 -14 -41 -17 -24 -24 25 -9 55 -12 107 -10 41
1 52 25 16 36 -12 4 -30 16 -40 26 -12 12 -33 19 -59 19 -36 0 -40 3 -40 24 0
18 6 25 23 28 l22 3 -21 21 c-14 14 -24 41 -28 78 l-7 56 45 0 c40 0 46 3 46
21 0 18 -5 20 -47 18 -41 -3 -48 0 -52 16 -2 11 -6 22 -10 25 -8 6 -31 58 -31
70 0 6 32 10 70 10 40 0 70 -4 70 -10 0 -5 18 -10 40 -10 22 0 40 4 40 9 0 11
62 18 98 12 18 -3 22 -10 22 -42z m-360 25 c0 -17 -22 -14 -28 4 -2 7 3 12 12
12 9 0 16 -7 16 -16z m-4400 -745 c0 -6 7 -17 15 -26 13 -12 15 -44 12 -192
-4 -175 -14 -227 -40 -218 -7 2 -12 8 -13 13 0 5 -6 21 -12 35 -17 42 -35 226
-28 291 6 59 30 107 54 108 6 0 12 -5 12 -11z m4427 -275 c-3 -3 -12 -4 -19
-1 -8 3 -5 6 6 6 11 1 17 -2 13 -5z"/>
<path d="M4050 3910 c19 -13 30 -13 30 0 0 6 -10 10 -22 10 -19 0 -20 -2 -8
-10z"/>
<path d="M5803 1843 c9 -2 23 -2 30 0 6 3 -1 5 -18 5 -16 0 -22 -2 -12 -5z"/>
<path d="M0 1514 c0 -11 5 -14 16 -10 9 3 23 6 32 7 14 0 13 2 -3 9 -31 13
-45 11 -45 -6z"/>
</g>
</svg>
